<svg width="24" height="24" viewBox="0 0 24 24" fill="none" xmlns="http://www.w3.org/2000/svg">
<path d="M2 12.0612C2.00116 17.0108 5.5784 21.2253 10.437 22.001V14.9689H7.9V12.0612H10.44V9.84761C10.3265 8.79873 10.6825 7.75339 11.4116 6.99509C12.1408 6.23679 13.1674 5.84413 14.213 5.9236C14.9635 5.9358 15.7122 6.00306 16.453 6.12484V8.59897H15.189C14.7538 8.54163 14.3164 8.68623 13.9998 8.99204C13.6832 9.29786 13.5218 9.73179 13.561 10.1716V12.0612H16.332L15.889 14.97H13.561V22.001C18.8155 21.1655 22.5001 16.3371 21.9455 11.0138C21.3909 5.69055 16.7913 1.73591 11.4788 2.01487C6.16636 2.29382 2.00084 6.70871 2 12.0612Z" fill="#0D0D15"/>
</svg>
