<svg width="64" height="65" viewBox="0 0 64 65" fill="none" xmlns="http://www.w3.org/2000/svg">
<path d="M12.5323 17.3249C9.86562 20.2583 8.26562 23.4583 8.26562 28.7916C8.26562 38.1249 14.9323 46.3916 24.2656 50.6583L26.6656 47.1916C17.8656 42.3916 15.999 36.2583 15.4656 32.2583C16.799 33.0583 18.6656 33.3249 20.5323 33.0583C25.3323 32.5249 29.0656 28.7916 29.0656 23.7249C29.0656 21.3249 27.999 18.9249 26.399 17.0583C24.5323 15.1916 22.399 14.3916 19.7323 14.3916C16.799 14.3916 14.1323 15.7249 12.5323 17.3249ZM39.199 17.3249C36.5323 20.2583 34.9323 23.4583 34.9323 28.7916C34.9323 38.1249 41.599 46.3916 50.9323 50.6583L53.3323 47.1916C44.5323 42.3916 42.6656 36.2583 42.1323 32.2583C43.4656 33.0583 45.3323 33.3249 47.199 33.0583C51.999 32.5249 55.7323 28.7916 55.7323 23.7249C55.7323 21.3249 54.6656 18.9249 53.0656 17.0583C51.4656 15.1916 49.0656 14.3916 46.399 14.3916C43.4656 14.3916 40.799 15.7249 39.199 17.3249Z" fill="#0F73F6"/>
</svg>
