<?xml version="1.0" encoding="utf-8"?>
<svg xmlns="http://www.w3.org/2000/svg">
<symbol id="check" viewBox="0 0 24 24">
<path fill-rule="evenodd" clip-rule="evenodd" d="M20.7071 5.29289C21.0976 5.68342 21.0976 6.31658 20.7071 6.70711L9.70711 17.7071C9.31658 18.0976 8.68342 18.0976 8.29289 17.7071L3.29289 12.7071C2.90237 12.3166 2.90237 11.6834 3.29289 11.2929C3.68342 10.9024 4.31658 10.9024 4.70711 11.2929L9 15.5858L19.2929 5.29289C19.6834 4.90237 20.3166 4.90237 20.7071 5.29289Z" fill="currentColor"/>

</symbol>
<symbol id="chevron-down" viewBox="0 0 24 24">
<path fill-rule="evenodd" clip-rule="evenodd" d="M5.29289 8.29289C5.68342 7.90237 6.31658 7.90237 6.70711 8.29289L12 13.5858L17.2929 8.29289C17.6834 7.90237 18.3166 7.90237 18.7071 8.29289C19.0976 8.68342 19.0976 9.31658 18.7071 9.70711L12.7071 15.7071C12.3166 16.0976 11.6834 16.0976 11.2929 15.7071L5.29289 9.70711C4.90237 9.31658 4.90237 8.68342 5.29289 8.29289Z" fill="currentColor"/>

</symbol>
<symbol id="chevron-left" viewBox="0 0 24 24">
<path fill-rule="evenodd" clip-rule="evenodd" d="M15.7071 5.29289C16.0976 5.68342 16.0976 6.31658 15.7071 6.70711L10.4142 12L15.7071 17.2929C16.0976 17.6834 16.0976 18.3166 15.7071 18.7071C15.3166 19.0976 14.6834 19.0976 14.2929 18.7071L8.29289 12.7071C7.90237 12.3166 7.90237 11.6834 8.29289 11.2929L14.2929 5.29289C14.6834 4.90237 15.3166 4.90237 15.7071 5.29289Z" fill="currentColor"/>

</symbol>
<symbol id="chevron-right-blue" viewBox="0 0 16 17">
<path d="M6 12.5249L10 8.5249L6 4.5249" stroke="#0265DC" stroke-width="2" stroke-linecap="round" stroke-linejoin="round"/>

</symbol>
<symbol id="chevron-right" viewBox="0 0 24 24">
<path fill-rule="evenodd" clip-rule="evenodd" d="M8.29289 5.29289C8.68342 4.90237 9.31658 4.90237 9.70711 5.29289L15.7071 11.2929C16.0976 11.6834 16.0976 12.3166 15.7071 12.7071L9.70711 18.7071C9.31658 19.0976 8.68342 19.0976 8.29289 18.7071C7.90237 18.3166 7.90237 17.6834 8.29289 17.2929L13.5858 12L8.29289 6.70711C7.90237 6.31658 7.90237 5.68342 8.29289 5.29289Z" fill="currentColor"/>

</symbol>
<symbol id="chevron-up" viewBox="0 0 24 24">
<path fill-rule="evenodd" clip-rule="evenodd" d="M11.2929 8.29289C11.6834 7.90237 12.3166 7.90237 12.7071 8.29289L18.7071 14.2929C19.0976 14.6834 19.0976 15.3166 18.7071 15.7071C18.3166 16.0976 17.6834 16.0976 17.2929 15.7071L12 10.4142L6.70711 15.7071C6.31658 16.0976 5.68342 16.0976 5.29289 15.7071C4.90237 15.3166 4.90237 14.6834 5.29289 14.2929L11.2929 8.29289Z" fill="currentColor"/>

</symbol>
<symbol id="clock-blue" viewBox="0 0 24 24">
<path d="M12 6V12L16 14M22 12C22 17.5228 17.5228 22 12 22C6.47715 22 2 17.5228 2 12C2 6.47715 6.47715 2 12 2C17.5228 2 22 6.47715 22 12Z" stroke="#0265DC" stroke-width="2" stroke-linecap="round" stroke-linejoin="round"/>

</symbol>
<symbol id="clock" viewBox="0 0 24 24">
<path fill-rule="evenodd" clip-rule="evenodd" d="M12 3C7.02944 3 3 7.02944 3 12C3 16.9706 7.02944 21 12 21C16.9706 21 21 16.9706 21 12C21 7.02944 16.9706 3 12 3ZM1 12C1 5.92487 5.92487 1 12 1C18.0751 1 23 5.92487 23 12C23 18.0751 18.0751 23 12 23C5.92487 23 1 18.0751 1 12ZM12 5C12.5523 5 13 5.44772 13 6V11.382L16.4472 13.1056C16.9412 13.3526 17.1414 13.9532 16.8944 14.4472C16.6474 14.9412 16.0468 15.1414 15.5528 14.8944L11.5528 12.8944C11.214 12.725 11 12.3788 11 12V6C11 5.44772 11.4477 5 12 5Z" fill="currentColor"/>

</symbol>
<symbol id="facebook" viewBox="0 0 24 24">
<path d="M2.00195 12.0614C2.00312 17.0111 5.58035 21.2255 10.439 22.0012V14.9692H7.90195V12.0614H10.442V9.84786C10.3284 8.79898 10.6845 7.75363 11.4136 6.99534C12.1427 6.23703 13.1693 5.84437 14.215 5.92385C14.9655 5.93604 15.7141 6.0033 16.455 6.12508V8.59922H15.191C14.7558 8.54187 14.3183 8.68647 14.0017 8.99229C13.6851 9.2981 13.5237 9.73203 13.563 10.1718V12.0614H16.334L15.891 14.9702H13.563V22.0012C18.8174 21.1657 22.502 16.3373 21.9475 11.0141C21.3929 5.69079 16.7932 1.73615 11.4808 2.01511C6.16831 2.29407 2.0028 6.70896 2.00195 12.0614Z" fill="currentColor"/>

</symbol>
<symbol id="filter-lines" viewBox="0 0 24 24">
<path fill-rule="evenodd" clip-rule="evenodd" d="M2 6C2 5.44772 2.44772 5 3 5H21C21.5523 5 22 5.44772 22 6C22 6.55228 21.5523 7 21 7H3C2.44772 7 2 6.55228 2 6ZM5 12C5 11.4477 5.44772 11 6 11H18C18.5523 11 19 11.4477 19 12C19 12.5523 18.5523 13 18 13H6C5.44772 13 5 12.5523 5 12ZM8 18C8 17.4477 8.44772 17 9 17H15C15.5523 17 16 17.4477 16 18C16 18.5523 15.5523 19 15 19H9C8.44772 19 8 18.5523 8 18Z" fill="currentColor"/>

</symbol>
<symbol id="grid" viewBox="0 0 24 24">
<path fill-rule="evenodd" clip-rule="evenodd" d="M4.56811 2C4.57873 2 4.58936 2.00001 4.60001 2.00001H8.40001C8.41065 2.00001 8.42128 2 8.4319 2C8.68429 1.99997 8.93008 1.99994 9.13824 2.01695C9.36683 2.03563 9.63656 2.07969 9.90799 2.21799C10.2843 2.40974 10.5903 2.7157 10.782 3.09202C10.9203 3.36345 10.9644 3.63318 10.9831 3.86178C11.0001 4.06994 11 4.31574 11 4.56813V8.43189C11 8.68427 11.0001 8.93007 10.9831 9.13824C10.9644 9.36683 10.9203 9.63656 10.782 9.90799C10.5903 10.2843 10.2843 10.5903 9.90799 10.782C9.63656 10.9203 9.36683 10.9644 9.13824 10.9831C8.93007 11.0001 8.68427 11 8.43189 11H4.56812C4.31574 11 4.06994 11.0001 3.86178 10.9831C3.63318 10.9644 3.36345 10.9203 3.09202 10.782C2.7157 10.5903 2.40974 10.2843 2.21799 9.90799C2.07969 9.63656 2.03563 9.36683 2.01695 9.13824C1.99994 8.93008 1.99997 8.68429 2 8.4319C2 8.42128 2.00001 8.41065 2.00001 8.40001V4.60001C2.00001 4.58936 2 4.57873 2 4.56811C1.99997 4.31572 1.99994 4.06993 2.01695 3.86178C2.03563 3.63318 2.07969 3.36345 2.21799 3.09202C2.40974 2.7157 2.7157 2.40974 3.09202 2.21799C3.36345 2.07969 3.63318 2.03563 3.86178 2.01695C4.06993 1.99994 4.31572 1.99997 4.56811 2ZM4.01145 4.01145C4.01107 4.0156 4.01069 4.02 4.01031 4.02464C4.00078 4.14122 4.00001 4.30348 4.00001 4.60001V8.40001C4.00001 8.69653 4.00078 8.85879 4.01031 8.97537C4.01069 8.98001 4.01107 8.98441 4.01145 8.98856C4.0156 8.98894 4.02 8.98932 4.02464 8.9897C4.14122 8.99923 4.30348 9.00001 4.60001 9.00001H8.40001C8.69653 9.00001 8.85879 8.99923 8.97537 8.9897C8.98001 8.98932 8.98441 8.98894 8.98856 8.98856C8.98894 8.98441 8.98932 8.98001 8.9897 8.97537C8.99923 8.85879 9.00001 8.69653 9.00001 8.40001V4.60001C9.00001 4.30348 8.99923 4.14122 8.9897 4.02464C8.98932 4.02 8.98894 4.0156 8.98856 4.01145C8.98441 4.01107 8.98001 4.01069 8.97537 4.01031C8.85879 4.00078 8.69653 4.00001 8.40001 4.00001H4.60001C4.30348 4.00001 4.14122 4.00078 4.02464 4.01031C4.02 4.01069 4.0156 4.01107 4.01145 4.01145ZM15.5681 2H19.4319C19.6843 1.99997 19.9301 1.99994 20.1382 2.01695C20.3668 2.03563 20.6366 2.07969 20.908 2.21799C21.2843 2.40974 21.5903 2.7157 21.782 3.09202C21.9203 3.36345 21.9644 3.63318 21.9831 3.86178C22.0001 4.06993 22 4.31571 22 4.56809V8.43192C22 8.6843 22.0001 8.93008 21.9831 9.13824C21.9644 9.36683 21.9203 9.63656 21.782 9.90799C21.5903 10.2843 21.2843 10.5903 20.908 10.782C20.6366 10.9203 20.3668 10.9644 20.1382 10.9831C19.9301 11.0001 19.6843 11 19.4319 11H15.5681C15.3157 11 15.0699 11.0001 14.8618 10.9831C14.6332 10.9644 14.3634 10.9203 14.092 10.782C13.7157 10.5903 13.4097 10.2843 13.218 9.90799C13.0797 9.63656 13.0356 9.36683 13.0169 9.13824C12.9999 8.93007 13 8.68428 13 8.43189V4.56812C13 4.31574 12.9999 4.06994 13.0169 3.86178C13.0356 3.63318 13.0797 3.36345 13.218 3.09202C13.4097 2.7157 13.7157 2.40974 14.092 2.21799C14.3634 2.07969 14.6332 2.03563 14.8618 2.01695C15.0699 1.99994 15.3157 1.99997 15.5681 2ZM15.0115 4.01145C15.0111 4.0156 15.0107 4.02 15.0103 4.02464C15.0008 4.14122 15 4.30348 15 4.60001V8.40001C15 8.69653 15.0008 8.85879 15.0103 8.97537C15.0107 8.98001 15.0111 8.98441 15.0115 8.98856C15.0156 8.98894 15.02 8.98932 15.0246 8.9897C15.1412 8.99923 15.3035 9.00001 15.6 9.00001H19.4C19.6965 9.00001 19.8588 8.99923 19.9754 8.9897C19.98 8.98932 19.9844 8.98893 19.9886 8.98855C19.9889 8.9844 19.9893 8.98001 19.9897 8.97537C19.9992 8.85879 20 8.69653 20 8.40001V4.60001C20 4.30348 19.9992 4.14122 19.9897 4.02464C19.9893 4.02 19.9889 4.0156 19.9885 4.01145C19.9844 4.01107 19.98 4.01069 19.9754 4.01031C19.8588 4.00078 19.6965 4.00001 19.4 4.00001H15.6C15.3035 4.00001 15.1412 4.00078 15.0246 4.01031C15.02 4.01069 15.0156 4.01107 15.0115 4.01145ZM4.56812 13H8.43189C8.68428 13 8.93007 12.9999 9.13824 13.0169C9.36683 13.0356 9.63656 13.0797 9.90799 13.218C10.2843 13.4097 10.5903 13.7157 10.782 14.092C10.9203 14.3634 10.9644 14.6332 10.9831 14.8618C11.0001 15.0699 11 15.3157 11 15.5681V19.4319C11 19.6843 11.0001 19.9301 10.9831 20.1382C10.9644 20.3668 10.9203 20.6366 10.782 20.908C10.5903 21.2843 10.2843 21.5903 9.90799 21.782C9.63656 21.9203 9.36683 21.9644 9.13824 21.9831C8.93008 22.0001 8.6843 22 8.43192 22H4.56809C4.31571 22 4.06993 22.0001 3.86178 21.9831C3.63318 21.9644 3.36345 21.9203 3.09202 21.782C2.7157 21.5903 2.40974 21.2843 2.21799 20.908C2.07969 20.6366 2.03563 20.3668 2.01695 20.1382C1.99994 19.9301 1.99997 19.6843 2 19.4319V15.5681C1.99997 15.3157 1.99994 15.0699 2.01695 14.8618C2.03563 14.6332 2.07969 14.3634 2.21799 14.092C2.40974 13.7157 2.7157 13.4097 3.09202 13.218C3.36345 13.0797 3.63318 13.0356 3.86178 13.0169C4.06994 12.9999 4.31574 13 4.56812 13ZM4.01145 15.0115C4.01107 15.0156 4.01069 15.02 4.01031 15.0246C4.00078 15.1412 4.00001 15.3035 4.00001 15.6V19.4C4.00001 19.6965 4.00078 19.8588 4.01031 19.9754C4.01069 19.98 4.01107 19.9844 4.01145 19.9885C4.0156 19.9889 4.02 19.9893 4.02464 19.9897C4.14122 19.9992 4.30348 20 4.60001 20H8.40001C8.69653 20 8.85879 19.9992 8.97537 19.9897C8.98001 19.9893 8.98441 19.9889 8.98856 19.9885C8.98894 19.9844 8.98932 19.98 8.9897 19.9754C8.99923 19.8588 9.00001 19.6965 9.00001 19.4V15.6C9.00001 15.3035 8.99923 15.1412 8.9897 15.0246C8.98932 15.02 8.98894 15.0156 8.98856 15.0115C8.98441 15.0111 8.98001 15.0107 8.97537 15.0103C8.85879 15.0008 8.69653 15 8.40001 15H4.60001C4.30348 15 4.14122 15.0008 4.02464 15.0103C4.02 15.0107 4.0156 15.0111 4.01145 15.0115ZM15.5681 13H19.4319C19.6843 13 19.9301 12.9999 20.1382 13.0169C20.3668 13.0356 20.6366 13.0797 20.908 13.218C21.2843 13.4097 21.5903 13.7157 21.782 14.092C21.9203 14.3634 21.9644 14.6332 21.9831 14.8618C22.0001 15.0699 22 15.3157 22 15.5681V19.4319C22 19.6843 22.0001 19.9301 21.9831 20.1382C21.9644 20.3668 21.9203 20.6366 21.782 20.908C21.5903 21.2843 21.2843 21.5903 20.908 21.782C20.6366 21.9203 20.3668 21.9644 20.1382 21.9831C19.9301 22.0001 19.6843 22 19.4319 22H15.5681C15.3157 22 15.0699 22.0001 14.8618 21.9831C14.6332 21.9644 14.3634 21.9203 14.092 21.782C13.7157 21.5903 13.4097 21.2843 13.218 20.908C13.0797 20.6366 13.0356 20.3668 13.0169 20.1382C12.9999 19.9301 13 19.6843 13 19.4319V15.5681C13 15.3157 12.9999 15.0699 13.0169 14.8618C13.0356 14.6332 13.0797 14.3634 13.218 14.092C13.4097 13.7157 13.7157 13.4097 14.092 13.218C14.3634 13.0797 14.6332 13.0356 14.8618 13.0169C15.0699 12.9999 15.3157 13 15.5681 13ZM15.0115 15.0115C15.0111 15.0156 15.0107 15.02 15.0103 15.0246C15.0008 15.1412 15 15.3035 15 15.6V19.4C15 19.6965 15.0008 19.8588 15.0103 19.9754C15.0107 19.98 15.0111 19.9844 15.0115 19.9885C15.0156 19.9889 15.02 19.9893 15.0246 19.9897C15.1412 19.9992 15.3035 20 15.6 20H19.4C19.6965 20 19.8588 19.9992 19.9754 19.9897C19.98 19.9893 19.9844 19.9889 19.9886 19.9885C19.9889 19.9844 19.9893 19.98 19.9897 19.9754C19.9992 19.8588 20 19.6965 20 19.4V15.6C20 15.3035 19.9992 15.1412 19.9897 15.0246C19.9893 15.02 19.9889 15.0156 19.9885 15.0115C19.9844 15.0111 19.98 15.0107 19.9754 15.0103C19.8588 15.0008 19.6965 15 19.4 15H15.6C15.3035 15 15.1412 15.0008 15.0246 15.0103C15.02 15.0107 15.0156 15.0111 15.0115 15.0115Z" fill="currentColor"/>

</symbol>
<symbol id="heart" viewBox="0 0 24 24">
<path fill-rule="evenodd" clip-rule="evenodd" d="M8.41062 5.01109C7.86153 4.95252 7.30626 5.00827 6.77977 5.17484C6.25329 5.3414 5.767 5.61518 5.35151 5.97892C4.93603 6.34265 4.60037 6.78848 4.36565 7.28832C4.13094 7.78816 4.00226 8.33118 3.98772 8.8832C3.97317 9.43521 4.07309 9.98426 4.28116 10.4958C4.48924 11.0073 4.80097 11.4701 5.19673 11.8553L5.20304 11.8614L5.20301 11.8614L11.9993 18.5925L18.7956 11.8614C18.8164 11.8409 18.8377 11.8215 18.8597 11.8031C19.2235 11.4301 19.511 10.9893 19.7059 10.5055C19.9116 9.99491 20.0097 9.44734 19.994 8.89708C19.9784 8.34682 19.8493 7.80571 19.6149 7.30762C19.3805 6.80954 19.0459 6.36519 18.6318 6.0024C18.2178 5.63961 17.7334 5.36618 17.2088 5.19922C16.6843 5.03227 16.1309 4.97538 15.5833 5.03213C15.0358 5.08887 14.5058 5.25802 14.0267 5.52899C13.5475 5.79997 13.1294 6.16693 12.7986 6.60691C12.6091 6.85892 12.3118 7.00681 11.9965 7.00593C11.6812 7.00505 11.3848 6.85552 11.1967 6.60245C10.8673 6.15925 10.4497 5.78906 9.97023 5.51518C9.49073 5.2413 8.95971 5.06967 8.41062 5.01109ZM20.134 13.3508L12.703 20.7104C12.3133 21.0964 11.6854 21.0964 11.2956 20.7104L3.79862 13.2854C3.20655 12.7084 2.74012 12.0152 2.42858 11.2494C2.11647 10.4821 1.9666 9.65855 1.98841 8.83053C2.01022 8.00251 2.20324 7.18798 2.55531 6.43822C2.90739 5.68846 3.41089 5.01972 4.03411 4.47411C4.65733 3.9285 5.38677 3.51784 6.1765 3.26799C6.96623 3.01814 7.79913 2.93451 8.62277 3.02238C9.4464 3.11024 10.2429 3.36768 10.9622 3.7785C11.3362 3.99215 11.6852 4.24487 12.0034 4.53174C12.3214 4.24834 12.6695 3.99885 13.0422 3.78808C13.7609 3.38162 14.5559 3.12789 15.3772 3.04278C16.1985 2.95766 17.0286 3.04299 17.8154 3.29343C18.6022 3.54386 19.3289 3.954 19.9499 4.49819C20.571 5.04238 21.073 5.7089 21.4246 6.45603C21.7762 7.20316 21.9697 8.01482 21.9932 8.84021C22.0167 9.66559 21.8696 10.4869 21.561 11.2529C21.2525 12.0188 20.7891 12.7127 20.2001 13.2914C20.1787 13.3123 20.1567 13.3321 20.134 13.3508Z" fill="currentColor"/>

</symbol>
<symbol id="list" viewBox="0 0 24 24">
<path fill-rule="evenodd" clip-rule="evenodd" d="M2 6C2 4.89543 2.89543 4 4 4C5.10457 4 6 4.89543 6 6C6 7.10457 5.10457 8 4 8C2.89543 8 2 7.10457 2 6ZM8 6C8 5.44772 8.44772 5 9 5H21C21.5523 5 22 5.44772 22 6C22 6.55229 21.5523 7 21 7L9 7C8.44772 7 8 6.55228 8 6ZM2 12C2 10.8954 2.89543 10 4 10C5.10457 10 6 10.8954 6 12C6 13.1046 5.10457 14 4 14C2.89543 14 2 13.1046 2 12ZM8 12C8 11.4477 8.44772 11 9 11L21 11C21.5523 11 22 11.4477 22 12C22 12.5523 21.5523 13 21 13L9 13C8.44772 13 8 12.5523 8 12ZM2 18C2 16.8954 2.89543 16 4 16C5.10457 16 6 16.8954 6 18C6 19.1046 5.10457 20 4 20C2.89543 20 2 19.1046 2 18ZM8 18C8 17.4477 8.44772 17 9 17L21 17C21.5523 17 22 17.4477 22 18C22 18.5523 21.5523 19 21 19L9 19C8.44772 19 8 18.5523 8 18Z" fill="currentColor"/>

</symbol>
<symbol id="mail-blue" viewBox="0 0 24 24">
<path d="M2 7L10.1649 12.7154C10.8261 13.1783 11.1567 13.4097 11.5163 13.4993C11.8339 13.5785 12.1661 13.5785 12.4837 13.4993C12.8433 13.4097 13.1739 13.1783 13.8351 12.7154L22 7M6.8 20H17.2C18.8802 20 19.7202 20 20.362 19.673C20.9265 19.3854 21.3854 18.9265 21.673 18.362C22 17.7202 22 16.8802 22 15.2V8.8C22 7.11984 22 6.27976 21.673 5.63803C21.3854 5.07354 20.9265 4.6146 20.362 4.32698C19.7202 4 18.8802 4 17.2 4H6.8C5.11984 4 4.27976 4 3.63803 4.32698C3.07354 4.6146 2.6146 5.07354 2.32698 5.63803C2 6.27976 2 7.11984 2 8.8V15.2C2 16.8802 2 17.7202 2.32698 18.362C2.6146 18.9265 3.07354 19.3854 3.63803 19.673C4.27976 20 5.11984 20 6.8 20Z" stroke="#0265DC" stroke-width="2" stroke-linecap="round" stroke-linejoin="round"/>

</symbol>
<symbol id="mail" viewBox="0 0 24 24">
<path fill-rule="evenodd" clip-rule="evenodd" d="M6.75879 3H17.2414C18.0464 2.99999 18.7107 2.99998 19.2519 3.04419C19.814 3.09012 20.3307 3.18868 20.816 3.43597C21.5687 3.81947 22.1806 4.43139 22.5641 5.18404C22.8027 5.65238 22.9029 6.14994 22.9509 6.68931C23.0043 6.8527 23.0137 7.02505 22.9819 7.18959C23.0001 7.63971 23.0001 8.16035 23.0001 8.75868V15.2413C23.0001 16.0463 23.0001 16.7106 22.9559 17.2518C22.91 17.8139 22.8114 18.3306 22.5641 18.816C22.1806 19.5686 21.5687 20.1805 20.816 20.564C20.3307 20.8113 19.814 20.9099 19.2519 20.9558C18.7107 21 18.0464 21 17.2414 21H6.75876C5.9538 21 5.28945 21 4.74826 20.9558C4.18616 20.9099 3.66946 20.8113 3.18412 20.564C2.43148 20.1805 1.81955 19.5686 1.43606 18.816C1.18877 18.3306 1.0902 17.8139 1.04428 17.2518C1.00006 16.7106 1.00007 16.0463 1.00009 15.2413V8.7587C1.00008 8.16037 1.00007 7.63972 1.01822 7.1896C0.986466 7.02505 0.995839 6.85269 1.0493 6.6893C1.09729 6.14993 1.19743 5.65238 1.43606 5.18404C1.81955 4.43139 2.43148 3.81947 3.18412 3.43597C3.66946 3.18868 4.18616 3.09012 4.74826 3.04419C5.28946 2.99998 5.95382 2.99999 6.75879 3ZM3.00009 8.92066V15.2C3.00009 16.0566 3.00086 16.6389 3.03764 17.089C3.07346 17.5274 3.13838 17.7516 3.21807 17.908C3.40982 18.2843 3.71578 18.5903 4.0921 18.782C4.2485 18.8617 4.47271 18.9266 4.91112 18.9624C5.36121 18.9992 5.94351 19 6.80009 19H17.2001C18.0567 19 18.639 18.9992 19.089 18.9624C19.5275 18.9266 19.7517 18.8617 19.9081 18.782C20.2844 18.5903 20.5904 18.2843 20.7821 17.908C20.8618 17.7516 20.9267 17.5274 20.9625 17.089C20.9993 16.6389 21.0001 16.0566 21.0001 15.2V8.92066L14.4086 13.5347C14.3698 13.5618 14.3314 13.5888 14.2933 13.6156C13.7486 13.998 13.2704 14.3338 12.7257 14.4696C12.2492 14.5884 11.7509 14.5884 11.2745 14.4696C10.7298 14.3338 10.2515 13.998 9.70689 13.6156C9.66878 13.5888 9.63035 13.5618 9.59154 13.5347L3.00009 8.92066ZM20.9173 6.53728L13.2617 11.8962C12.5328 12.4065 12.3783 12.495 12.242 12.529C12.0831 12.5686 11.917 12.5686 11.7582 12.529C11.6218 12.495 11.4674 12.4065 10.7385 11.8962L3.08286 6.53728C3.11858 6.33012 3.16506 6.19607 3.21807 6.09202C3.40982 5.7157 3.71578 5.40973 4.0921 5.21799C4.2485 5.1383 4.47271 5.07337 4.91112 5.03755C5.36121 5.00078 5.94351 5 6.80009 5H17.2001C18.0567 5 18.639 5.00078 19.089 5.03755C19.5275 5.07337 19.7517 5.1383 19.9081 5.21799C20.2844 5.40973 20.5904 5.7157 20.7821 6.09202C20.8351 6.19607 20.8816 6.33012 20.9173 6.53728Z" fill="currentColor"/>

</symbol>
<symbol id="marker" viewBox="0 0 24 24">
<path fill-rule="evenodd" clip-rule="evenodd" d="M12 3C8.13401 3 5 6.13401 5 10C5 12.7398 6.43931 14.2321 8.26764 15.7657C8.45903 15.9262 8.65793 16.0889 8.86116 16.255C9.94372 17.1402 11.1495 18.1262 12 19.4318C12.8505 18.1262 14.0563 17.1402 15.1388 16.255C15.3421 16.0889 15.541 15.9262 15.7324 15.7657C17.5607 14.2321 19 12.7398 19 10C19 6.13401 15.866 3 12 3ZM3 10C3 5.02944 7.02944 1 12 1C16.9706 1 21 5.02944 21 10C21 13.6785 18.9393 15.6862 17.0176 17.298C16.8145 17.4684 16.6153 17.6333 16.4208 17.7943C14.7005 19.2182 13.3531 20.3335 12.9806 22.1961C12.8871 22.6635 12.4767 23 12 23C11.5233 23 11.1129 22.6635 11.0194 22.1961C10.6469 20.3335 9.29947 19.2182 7.57915 17.7943C7.38469 17.6333 7.18547 17.4684 6.98236 17.298C5.06069 15.6862 3 13.6785 3 10ZM12 8C10.8954 8 10 8.89543 10 10C10 11.1046 10.8954 12 12 12C13.1046 12 14 11.1046 14 10C14 8.89543 13.1046 8 12 8ZM8 10C8 7.79086 9.79086 6 12 6C14.2091 6 16 7.79086 16 10C16 12.2091 14.2091 14 12 14C9.79086 14 8 12.2091 8 10Z" fill="currentColor"/>

</symbol>
<symbol id="menu-01" viewBox="0 0 24 24">
<path fill-rule="evenodd" clip-rule="evenodd" d="M2 6C2 5.44772 2.44772 5 3 5H21C21.5523 5 22 5.44772 22 6C22 6.55228 21.5523 7 21 7H3C2.44772 7 2 6.55228 2 6ZM2 12C2 11.4477 2.44772 11 3 11H21C21.5523 11 22 11.4477 22 12C22 12.5523 21.5523 13 21 13H3C2.44772 13 2 12.5523 2 12ZM2 18C2 17.4477 2.44772 17 3 17H21C21.5523 17 22 17.4477 22 18C22 18.5523 21.5523 19 21 19H3C2.44772 19 2 18.5523 2 18Z" fill="currentColor"/>

</symbol>
<symbol id="minus" viewBox="0 0 24 24">
<path d="M5 12H19" stroke="#0D0D15" stroke-width="2" stroke-linecap="round" stroke-linejoin="round"/>

</symbol>
<symbol id="phone-blue" viewBox="0 0 24 24">
<path d="M8.38028 8.85335C9.07627 10.303 10.0251 11.6616 11.2266 12.8632C12.4282 14.0648 13.7869 15.0136 15.2365 15.7096C15.3612 15.7694 15.4235 15.7994 15.5024 15.8224C15.7828 15.9041 16.127 15.8454 16.3644 15.6754C16.4313 15.6275 16.4884 15.5704 16.6027 15.4561C16.9523 15.1064 17.1271 14.9316 17.3029 14.8174C17.9658 14.3864 18.8204 14.3864 19.4833 14.8174C19.6591 14.9316 19.8339 15.1064 20.1835 15.4561L20.3783 15.6509C20.9098 16.1824 21.1755 16.4481 21.3198 16.7335C21.6069 17.301 21.6069 17.9713 21.3198 18.5389C21.1755 18.8242 20.9098 19.09 20.3783 19.6214L20.2207 19.779C19.6911 20.3087 19.4263 20.5735 19.0662 20.7757C18.6667 21.0001 18.0462 21.1615 17.588 21.1601C17.1751 21.1589 16.8928 21.0788 16.3284 20.9186C13.295 20.0576 10.4326 18.4332 8.04466 16.0452C5.65668 13.6572 4.03221 10.7948 3.17124 7.76144C3.01103 7.19699 2.93092 6.91477 2.9297 6.50182C2.92833 6.0436 3.08969 5.42311 3.31411 5.0236C3.51636 4.66357 3.78117 4.39876 4.3108 3.86913L4.46843 3.7115C4.99987 3.18006 5.2656 2.91433 5.55098 2.76999C6.11854 2.48292 6.7888 2.48292 7.35636 2.76999C7.64174 2.91433 7.90747 3.18006 8.43891 3.7115L8.63378 3.90637C8.98338 4.25597 9.15819 4.43078 9.27247 4.60655C9.70347 5.26945 9.70347 6.12403 9.27247 6.78692C9.15819 6.96269 8.98338 7.1375 8.63378 7.4871C8.51947 7.60142 8.46231 7.65857 8.41447 7.72538C8.24446 7.96281 8.18576 8.30707 8.26748 8.58743C8.29048 8.66632 8.32041 8.72866 8.38028 8.85335Z" stroke="#0265DC" stroke-width="2" stroke-linecap="round" stroke-linejoin="round"/>

</symbol>
<symbol id="phone" viewBox="0 0 24 24">
<path fill-rule="evenodd" clip-rule="evenodd" d="M6.90502 3.66234C6.62124 3.5188 6.2861 3.5188 6.00232 3.66234C5.8956 3.71632 5.76256 3.83158 5.17554 4.41861L5.0179 4.57624C4.45769 5.13646 4.30668 5.29848 4.18597 5.51336C4.04606 5.76243 3.92884 6.21317 3.92969 6.49884C3.93045 6.75305 3.96798 6.90614 4.13324 7.48839C4.94884 10.362 6.48744 13.0737 8.75177 15.3381C11.0161 17.6024 13.7279 19.141 16.6014 19.9566C17.1837 20.1219 17.3368 20.1594 17.591 20.1601C17.8767 20.161 18.3274 20.0438 18.5765 19.9039C18.7914 19.7831 18.9534 19.6321 19.5136 19.0719L19.6712 18.9143C20.2582 18.3273 20.3735 18.1942 20.4275 18.0875C20.571 17.8037 20.571 17.4686 20.4275 17.1848C20.3735 17.0781 20.2583 16.9451 19.6712 16.358L20.3783 15.6509L19.6712 16.358L19.4764 16.1632C19.0907 15.7775 19.0039 15.6985 18.9382 15.6557C18.6067 15.4402 18.1795 15.4402 17.848 15.6557C17.7823 15.6985 17.6955 15.7775 17.3098 16.1632C17.3022 16.1708 17.2944 16.1786 17.2864 16.1866C17.1967 16.2767 17.0831 16.3907 16.9466 16.4884L16.3644 15.6754L16.9466 16.4884C16.4596 16.8371 15.7976 16.95 15.2226 16.7824C15.0622 16.7356 14.9302 16.672 14.8275 16.6225C14.8193 16.6186 14.8114 16.6148 14.8037 16.611C13.2537 15.8669 11.802 14.8528 10.5195 13.5703C9.23706 12.2878 8.22297 10.8361 7.4788 9.28617C7.47507 9.27842 7.47125 9.27048 7.46733 9.26236C7.41783 9.15967 7.35419 9.02766 7.30744 8.86728L8.26748 8.58743L7.30744 8.86728C7.13981 8.29225 7.25271 7.63018 7.60141 7.1432L7.60142 7.14319C7.69911 7.00676 7.81314 6.89315 7.9032 6.80341C7.91122 6.79542 7.91906 6.78761 7.92667 6.78C8.31238 6.39429 8.39136 6.30756 8.43409 6.24183L8.4341 6.24183C8.64959 5.91038 8.64959 5.48309 8.4341 5.15165C8.39136 5.08591 8.31238 4.99918 7.92667 4.61347L7.7318 4.4186C7.14478 3.83158 7.01174 3.71632 6.90502 3.66234ZM5.09963 1.87764C5.95097 1.44704 6.95637 1.44704 7.80771 1.87764C8.24031 2.09645 8.61586 2.47296 9.0503 2.90851C9.08188 2.94017 9.11377 2.97215 9.14601 3.00439L9.34088 3.19926C9.36213 3.22051 9.38318 3.24152 9.40402 3.26233C9.69068 3.5485 9.93761 3.79501 10.1108 4.06146L9.27247 4.60655L10.1109 4.06146C10.7573 5.0558 10.7573 6.33767 10.1108 7.33201C9.93761 7.59846 9.69068 7.84497 9.40402 8.13114C9.38318 8.15195 9.36213 8.17296 9.34088 8.19421C9.28328 8.25182 9.25389 8.28136 9.23342 8.30302C9.23304 8.30465 9.23268 8.30645 9.23235 8.3084C9.23198 8.31056 9.23171 8.31257 9.23151 8.31438C9.23481 8.32169 9.23927 8.33136 9.24542 8.34443C9.25503 8.36485 9.26632 8.38839 9.28176 8.42053C9.92958 9.76981 10.8131 11.0354 11.9337 12.1561C13.0544 13.2768 14.32 14.1603 15.6693 14.8081L15.2365 15.7096L15.6693 14.8081C15.7014 14.8235 15.725 14.8348 15.7454 14.8444C15.7585 14.8506 15.7681 14.855 15.7755 14.8583C15.7773 14.8581 15.7793 14.8579 15.7814 14.8575C15.7834 14.8572 15.7852 14.8568 15.7868 14.8564C15.8085 14.8359 15.838 14.8066 15.8956 14.7489C15.9169 14.7277 15.9379 14.7066 15.9587 14.6858C16.2449 14.3991 16.4914 14.1522 16.7578 13.979C17.7522 13.3325 19.034 13.3325 20.0284 13.979C20.2948 14.1522 20.5413 14.3991 20.8275 14.6858C20.8483 14.7066 20.8693 14.7277 20.8906 14.7489L20.1835 15.4561L20.8906 14.749L21.0854 14.9438C21.1177 14.9761 21.1497 15.0079 21.1813 15.0395C21.6169 15.474 21.9934 15.8495 22.2122 16.2821C22.6428 17.1335 22.6428 18.1389 22.2122 18.9902C21.9934 19.4228 21.6169 19.7984 21.1813 20.2328C21.1497 20.2644 21.1177 20.2963 21.0854 20.3285L20.9278 20.4861C20.905 20.509 20.8824 20.5316 20.8601 20.5539C20.3948 21.0196 20.0381 21.3768 19.556 21.6476C19.0061 21.9565 18.2158 22.162 17.585 22.1601C17.0332 22.1585 16.6307 22.0441 16.1117 21.8966C16.0931 21.8913 16.0743 21.886 16.0554 21.8806C12.8621 20.9743 9.84919 19.2639 7.33755 16.7523C4.82592 14.2406 3.11557 11.2277 2.20923 8.03448C2.20386 8.01555 2.19853 7.99678 2.19323 7.97816C2.04573 7.45915 1.93134 7.05668 1.9297 6.5048C1.92782 5.87402 2.13333 5.08378 2.44226 4.53384L2.44226 4.53384C2.71306 4.05177 3.07021 3.69498 3.53594 3.22973C3.55828 3.20742 3.58086 3.18486 3.60369 3.16203L3.76132 3.00439C3.79357 2.97215 3.82546 2.94017 3.85704 2.90851C4.29148 2.47296 4.66703 2.09645 5.09963 1.87764L5.54586 2.75988L5.09963 1.87764Z" fill="currentColor"/>

</symbol>
<symbol id="play-button" viewBox="0 0 14 16">
<path d="M13.5 7.13397C14.1667 7.51887 14.1667 8.48112 13.5 8.86602L1.5 15.7942C0.833334 16.1791 0 15.698 0 14.9282L0 1.0718C0 0.301996 0.833333 -0.179129 1.5 0.205771L13.5 7.13397Z" fill="currentColor"/>

</symbol>
<symbol id="play" viewBox="0 0 24 24">
<path fill-rule="evenodd" clip-rule="evenodd" d="M8.00625 2.80243C8.0182 2.8104 8.0302 2.8184 8.04222 2.82642L18.591 9.85893C18.8962 10.0624 19.1792 10.251 19.3965 10.4263C19.6234 10.6092 19.8908 10.8629 20.0447 11.234C20.2481 11.7245 20.2481 12.2758 20.0447 12.7663C19.8908 13.1374 19.6234 13.391 19.3965 13.574C19.1792 13.7493 18.8962 13.9379 18.591 14.1413L8.00628 21.1978C7.63319 21.4466 7.29771 21.6702 7.01305 21.8245C6.72818 21.9789 6.33717 22.1553 5.8808 22.128C5.29705 22.0932 4.75779 21.8046 4.40498 21.3382C4.12916 20.9736 4.05905 20.5504 4.02949 20.2278C3.99994 19.9053 3.99997 19.5021 4 19.0537L4 4.98975C4 4.97529 4 4.96087 4 4.9465C3.99997 4.49811 3.99994 4.09491 4.02949 3.77249C4.05905 3.44983 4.12916 3.02664 4.40498 2.66202C4.75779 2.19565 5.29705 1.90705 5.8808 1.87219C6.33717 1.84494 6.72818 2.02135 7.01305 2.17573C7.29771 2.33 7.63318 2.55368 8.00625 2.80243ZM6.02513 3.91557C6.02378 3.92769 6.02244 3.94081 6.02114 3.95497C6.00101 4.17472 6 4.4843 6 4.98975V19.0105C6 19.5159 6.00101 19.8255 6.02114 20.0453C6.02244 20.0594 6.02378 20.0725 6.02512 20.0847C6.03595 20.0791 6.04761 20.0729 6.06011 20.0661C6.25412 19.961 6.51227 19.7901 6.93282 19.5097L17.4484 12.4993C17.7982 12.2661 18.0033 12.1282 18.141 12.0172C18.1485 12.0111 18.1554 12.0055 18.1618 12.0001C18.1554 11.9948 18.1485 11.9891 18.141 11.9831C18.0033 11.872 17.7982 11.7341 17.4484 11.5009L6.93282 4.49052C6.51227 4.21014 6.25412 4.03926 6.06011 3.93411C6.04761 3.92734 6.03595 3.92118 6.02513 3.91557Z" fill="currentColor"/>

</symbol>
<symbol id="plus" viewBox="0 0 24 24">
<path fill-rule="evenodd" clip-rule="evenodd" d="M12 4C12.5523 4 13 4.44772 13 5V11H19C19.5523 11 20 11.4477 20 12C20 12.5523 19.5523 13 19 13H13V19C13 19.5523 12.5523 20 12 20C11.4477 20 11 19.5523 11 19V13H5C4.44772 13 4 12.5523 4 12C4 11.4477 4.44772 11 5 11H11V5C11 4.44772 11.4477 4 12 4Z" fill="currentColor"/>

</symbol>
<symbol id="question" viewBox="0 0 16 16">
  <g clip-path="url(#a)">
    <path fill="currentColor" fill-rule="evenodd" d="M8 16A8 8 0 1 0 8 0a8 8 0 0 0 0 16Zm.27-6.756h-.888a.254.254 0 0 1-.257-.224v-.213c.007-.204.051-.384.133-.54.081-.163.18-.309.295-.438.115-.136.241-.258.377-.366.142-.116.271-.228.387-.336a2.04 2.04 0 0 0 .285-.326.64.64 0 0 0 .122-.377c0-.197-.064-.346-.193-.448-.13-.109-.313-.163-.55-.163-.272 0-.486.058-.642.173a.533.533 0 0 0-.179.216c-.082.175-.227.334-.42.334h-.85c-.2 0-.366-.163-.343-.363.063-.533.27-.958.621-1.276.428-.387 1.042-.58 1.843-.58.299 0 .587.033.866.101.285.068.536.18.753.336.217.156.39.36.52.611.135.244.203.547.203.906a1.75 1.75 0 0 1-.224.804 2.885 2.885 0 0 1-.305.438c-.13.15-.292.32-.49.51a5.928 5.928 0 0 0-.488.55.88.88 0 0 0-.159.303c-.058.196-.213.368-.417.368Zm.352.774a1.003 1.003 0 0 0-.692-.244c-.285 0-.523.081-.713.244-.183.163-.275.404-.275.723 0 .326.092.57.275.733.19.156.428.234.713.234.278 0 .509-.078.692-.234.19-.163.285-.407.285-.733 0-.319-.095-.56-.285-.723Z" clip-rule="evenodd"/>
  </g>
  <defs>
    <clipPath id="a">
      <rect width="16" height="16" fill="#fff" rx="8"/>
    </clipPath>
  </defs>

</symbol>
<symbol id="search-md" viewBox="0 0 24 24">
<path fill-rule="evenodd" clip-rule="evenodd" d="M11 4C7.13401 4 4 7.13401 4 11C4 14.866 7.13401 18 11 18C12.8859 18 14.5977 17.2542 15.8564 16.0414C15.8827 16.0072 15.9115 15.9742 15.9429 15.9429C15.9742 15.9115 16.0072 15.8827 16.0414 15.8564C17.2542 14.5977 18 12.8859 18 11C18 7.13401 14.866 4 11 4ZM18.0319 16.6177C19.2635 15.078 20 13.125 20 11C20 6.02944 15.9706 2 11 2C6.02944 2 2 6.02944 2 11C2 15.9706 6.02944 20 11 20C13.125 20 15.078 19.2635 16.6177 18.0319L20.2929 21.7071C20.6834 22.0976 21.3166 22.0976 21.7071 21.7071C22.0976 21.3166 22.0976 20.6834 21.7071 20.2929L18.0319 16.6177Z" fill="currentColor"/>

</symbol>
<symbol id="shopping-bag" viewBox="0 0 24 24">
<path fill-rule="evenodd" clip-rule="evenodd" d="M7.00037 7.01324V9C7.00037 9.55228 7.44809 10 8.00037 10C8.55266 10 9.00037 9.55228 9.00037 9V7L15.0004 7V9C15.0004 9.55228 15.4481 10 16.0004 10C16.5527 10 17.0004 9.55228 17.0004 9V7.01324C17.1319 7.01798 17.2522 7.02442 17.3638 7.03317C17.7655 7.06467 17.9755 7.12171 18.1261 7.19323C18.4846 7.36341 18.7844 7.63639 18.9873 7.97744C19.0726 8.12078 19.149 8.32448 19.2178 8.72153C19.2888 9.13073 19.3392 9.66138 19.4127 10.4453L20.0127 16.8453C20.0996 17.7723 20.1582 18.4054 20.1626 18.896C20.1669 19.376 20.1161 19.6207 20.0435 19.7895C19.8667 20.2011 19.5568 20.5414 19.1636 20.7559C19.0022 20.8438 18.7634 20.9173 18.2851 20.9578C17.7962 20.9992 17.1604 21 16.2293 21H7.77142C6.84032 21 6.20455 20.9992 5.71568 20.9578C5.23738 20.9173 4.99853 20.8438 4.83719 20.7559C4.44392 20.5414 4.13404 20.2011 3.95721 19.7895C3.88466 19.6207 3.83382 19.376 3.83816 18.896C3.84259 18.4054 3.9011 17.7723 3.98801 16.8453L4.58801 10.4453C4.6615 9.66138 4.71197 9.13073 4.78293 8.72153C4.85179 8.32448 4.92817 8.12078 5.01345 7.97744C5.21635 7.63639 5.51612 7.36341 5.87462 7.19323C6.0253 7.1217 6.23524 7.06467 6.63697 7.03317C6.74858 7.02442 6.86883 7.01798 7.00037 7.01324ZM16.9023 5.00942C17.1246 5.01516 17.3302 5.02441 17.5201 5.03929C18.0427 5.08026 18.5239 5.16814 18.9838 5.38646C19.7008 5.72681 20.3003 6.27278 20.7061 6.95488C20.9664 7.39242 21.0988 7.86331 21.1884 8.37979C21.2743 8.8754 21.3314 9.48449 21.4004 10.2197L22.0081 16.7019C22.0899 17.575 22.1572 18.2926 22.1625 18.8779C22.168 19.4835 22.1105 20.0451 21.8811 20.579C21.5274 21.4022 20.9077 22.0828 20.1211 22.5117C19.611 22.7899 19.0572 22.8996 18.4537 22.9507C17.8705 23 17.1497 23 16.2728 23H7.72799C6.85107 23 6.13025 23 5.547 22.9507C4.94359 22.8996 4.38977 22.7899 3.8796 22.5117C3.09306 22.0828 2.4733 21.4022 2.11964 20.579C1.89024 20.0451 1.83277 19.4835 1.83824 18.8779C1.84353 18.2926 1.91082 17.575 1.99269 16.7019L2.60039 10.2197C2.66931 9.48449 2.7264 8.8754 2.81234 8.37979C2.90191 7.86331 3.03433 7.39242 3.29462 6.95488C3.70042 6.27278 4.29996 5.72681 5.01696 5.38646C5.47688 5.16814 5.95808 5.08026 6.48067 5.03929C6.67051 5.02441 6.87615 5.01516 7.09849 5.00942C7.55811 2.72249 9.57809 1 12.0004 1C14.4227 1 16.4426 2.72249 16.9023 5.00942ZM14.8297 5C14.4178 3.83481 13.3066 3 12.0004 3C10.6942 3 9.58292 3.83481 9.17108 5L14.8297 5Z" fill="currentColor"/>

</symbol>
<symbol id="telegram" viewBox="0 0 24 24">
<path d="M23.5468 2.42273C23.1374 2.11452 22.4944 2.07042 21.8295 2.30739H21.8285C21.1292 2.55649 2.03537 9.82768 1.25808 10.1247C1.11671 10.1684 -0.118008 10.5774 0.00917513 11.4885C0.122712 12.3099 1.11507 12.6501 1.23625 12.6893L6.0905 14.165C6.41255 15.1168 7.59977 18.6283 7.86233 19.3785C8.02608 19.8462 8.293 20.4607 8.7608 20.5871C9.17128 20.7277 9.57957 20.5993 9.84376 20.4151L12.8116 17.9712L17.6025 21.2884L17.7166 21.349C18.0419 21.4769 18.3536 21.5409 18.6511 21.5409C18.8809 21.5409 19.1014 21.5026 19.3121 21.426C20.0299 21.1643 20.317 20.5571 20.347 20.4883L23.9256 3.97399C24.144 3.09199 23.8405 2.64323 23.5468 2.42273ZM10.3716 14.7553L8.73405 18.6322L7.0965 13.786L19.6511 5.54754L10.3716 14.7553Z" fill="currentColor"/>

</symbol>
<symbol id="trophy" viewBox="0 0 24 24">
<path fill-rule="evenodd" clip-rule="evenodd" d="M7.35462 0.999775C7.38533 0.999899 7.41534 1.00002 7.44454 1.00002H16.5557C16.5849 1.00002 16.6149 0.999899 16.6456 0.999775C16.9586 0.998509 17.3443 0.99695 17.6841 1.12064C18.2397 1.32283 18.6773 1.76045 18.8795 2.31598C18.9594 2.5355 18.987 2.77416 18.9962 3.00002L20.5266 3.00002C20.7366 3 20.9412 2.99998 21.1153 3.01185C21.3057 3.02484 21.5314 3.05532 21.7655 3.15226C22.2555 3.35525 22.6449 3.7446 22.8479 4.23465C22.9448 4.4687 22.9753 4.69442 22.9883 4.88479C23.0001 5.05888 23.0001 5.2635 23.0001 5.47354V6.00002C23.0001 6.04656 23.0001 6.09241 23.0001 6.13759C23.0006 6.93298 23.0009 7.52364 22.8638 8.0353C22.4939 9.41566 21.4157 10.4939 20.0354 10.8637C19.6548 10.9657 19.2305 10.9916 18.7108 10.9981C17.9429 13.5809 15.7245 15.5394 13.0001 15.9291V17H13.4445C15.9605 17 18.0001 19.0396 18.0001 21.5556C18.0001 22.3533 17.3534 23 16.5557 23H7.44454C6.6468 23 6.0001 22.3533 6.0001 21.5556C6.0001 19.0396 8.03969 17 10.5557 17H11.0001V15.9291C8.27565 15.5394 6.05727 13.5809 5.2894 10.9981C4.76967 10.9916 4.34539 10.9657 3.96482 10.8637C2.58445 10.4939 1.50626 9.41566 1.13639 8.0353C0.999297 7.52365 0.999617 6.93299 1.00005 6.1376C1.00007 6.09241 1.0001 6.04656 1.0001 6.00002V5.50002C1.0001 5.49119 1.0001 5.48236 1.00009 5.47355C1.00007 5.2635 1.00005 5.05888 1.01193 4.88479C1.02492 4.69442 1.05539 4.4687 1.15234 4.23465C1.35533 3.7446 1.74467 3.35525 2.23473 3.15226C2.46877 3.05532 2.6945 3.02484 2.88487 3.01185C3.05895 2.99998 3.26358 3 3.47362 3.00002C3.48244 3.00002 3.49126 3.00002 3.5001 3.00002H5.00397C5.01318 2.77416 5.04081 2.5355 5.12071 2.31598C5.32291 1.76045 5.76052 1.32283 6.31606 1.12064C6.65588 0.99695 7.04156 0.998509 7.35462 0.999775ZM5.0001 5.00002H3.5001C3.25344 5.00002 3.11854 5.00056 3.02101 5.00722C3.01648 5.00753 3.01222 5.00784 3.00823 5.00815C3.00792 5.01214 3.0076 5.0164 3.00729 5.02094C3.00064 5.11846 3.0001 5.25337 3.0001 5.50002V6.00002C3.0001 6.99437 3.00869 7.29538 3.06824 7.51766C3.25318 8.20784 3.79227 8.74694 4.48246 8.93187C4.60125 8.9637 4.74252 8.98097 5.0001 8.99016V5.00002ZM7.0001 3.44446C7.0001 3.22541 7.00052 3.10562 7.0058 3.01877C7.00606 3.01441 7.00633 3.01033 7.0066 3.00652C7.0104 3.00625 7.01448 3.00599 7.01885 3.00572C7.10569 3.00045 7.22548 3.00002 7.44454 3.00002H16.5557C16.7747 3.00002 16.8945 3.00045 16.9813 3.00572C16.9857 3.00599 16.9898 3.00625 16.9936 3.00652C16.9939 3.01033 16.9941 3.01441 16.9944 3.01877C16.9997 3.10562 17.0001 3.22541 17.0001 3.44446V9.00002C17.0001 11.7614 14.7615 14 12.0001 14C9.23867 14 7.0001 11.7614 7.0001 9.00002V3.44446ZM19.0001 5.00002V8.99016C19.2577 8.98097 19.3989 8.9637 19.5177 8.93187C20.2079 8.74694 20.747 8.20784 20.9319 7.51766C20.9915 7.29538 21.0001 6.99437 21.0001 6.00002V5.50002C21.0001 5.25337 20.9996 5.11846 20.9929 5.02094C20.9926 5.0164 20.9923 5.01214 20.992 5.00815C20.988 5.00784 20.9837 5.00753 20.9792 5.00722C20.8817 5.00056 20.7467 5.00002 20.5001 5.00002H19.0001ZM10.5557 19C9.33505 19 8.31431 19.8558 8.06065 21H15.9395C15.6859 19.8558 14.6651 19 13.4445 19H10.5557Z" fill="currentColor"/>

</symbol>
<symbol id="twitter" viewBox="0 0 24 24">
<path d="M19.6441 6.18005C20.5012 5.64387 21.1425 4.7996 21.4483 3.80486C20.6429 4.30492 19.7618 4.65717 18.8429 4.84639C17.569 3.43621 15.5505 3.09303 13.9155 4.00862C12.2804 4.92421 11.4335 6.87189 11.848 8.76335C8.54901 8.59003 5.47544 6.95936 3.3921 4.2771C2.30485 6.2395 2.86046 8.74812 4.66182 10.01C4.01043 9.98806 3.37348 9.80351 2.80409 9.4717C2.80409 9.48971 2.80409 9.50772 2.80409 9.52573C2.80447 11.5699 4.18125 13.3307 6.09599 13.7358C5.49179 13.9079 4.85802 13.9332 4.24304 13.8099C4.78153 15.558 6.32121 16.7556 8.07611 16.7914C6.62265 17.9851 4.82769 18.6325 2.98002 18.6293C2.65252 18.6298 2.32528 18.6101 2 18.5703C3.87627 19.8319 6.06002 20.5016 8.29028 20.4992C11.3931 20.5215 14.375 19.2415 16.569 16.9455C18.763 14.6494 19.986 11.529 19.9644 8.28211C19.9644 8.09601 19.9603 7.91092 19.952 7.72683C20.7556 7.11913 21.4491 6.3663 22 5.50372C21.2514 5.85095 20.4573 6.07893 19.6441 6.18005Z" fill="currentColor"/>

</symbol>
<symbol id="wallet-1" viewBox="0 0 24 24">
<path fill-rule="evenodd" clip-rule="evenodd" d="M5 4C4.44772 4 4 4.44772 4 5C4 5.55228 4.44772 6 5 6L19 6C20.6569 6 22 7.34315 22 9V19C22 20.6569 20.6569 22 19 22H5C3.34315 22 2 20.6569 2 19V5C2 3.34315 3.34315 2 5 2H17C17.5523 2 18 2.44772 18 3C18 3.55228 17.5523 4 17 4H5ZM4 7.82929V19C4 19.5523 4.44772 20 5 20H19C19.5523 20 20 19.5523 20 19V9C20 8.44772 19.5523 8 19 8L5 8C4.64936 8 4.31278 7.93985 4 7.82929ZM15 14C15 13.1716 15.6716 12.5 16.5 12.5C17.3284 12.5 18 13.1716 18 14C18 14.8284 17.3284 15.5 16.5 15.5C15.6716 15.5 15 14.8284 15 14Z" fill="currentColor"/>

</symbol>
<symbol id="wallet" viewBox="0 0 24 24">
<path fill-rule="evenodd" clip-rule="evenodd" d="M5 4C4.44772 4 4 4.44772 4 5C4 5.55228 4.44772 6 5 6L19 6C20.6569 6 22 7.34315 22 9V19C22 20.6569 20.6569 22 19 22H5C3.34315 22 2 20.6569 2 19V5C2 3.34315 3.34315 2 5 2H17C17.5523 2 18 2.44772 18 3C18 3.55228 17.5523 4 17 4H5ZM4 7.82929V19C4 19.5523 4.44772 20 5 20H19C19.5523 20 20 19.5523 20 19V9C20 8.44772 19.5523 8 19 8L5 8C4.64936 8 4.31278 7.93985 4 7.82929ZM15 14C15 13.1716 15.6716 12.5 16.5 12.5C17.3284 12.5 18 13.1716 18 14C18 14.8284 17.3284 15.5 16.5 15.5C15.6716 15.5 15 14.8284 15 14Z" fill="currentColor"/>

</symbol>
<symbol id="x-close" viewBox="0 0 24 24">
<path fill-rule="evenodd" clip-rule="evenodd" d="M5.29289 5.29289C5.68342 4.90237 6.31658 4.90237 6.70711 5.29289L12 10.5858L17.2929 5.29289C17.6834 4.90237 18.3166 4.90237 18.7071 5.29289C19.0976 5.68342 19.0976 6.31658 18.7071 6.70711L13.4142 12L18.7071 17.2929C19.0976 17.6834 19.0976 18.3166 18.7071 18.7071C18.3166 19.0976 17.6834 19.0976 17.2929 18.7071L12 13.4142L6.70711 18.7071C6.31658 19.0976 5.68342 19.0976 5.29289 18.7071C4.90237 18.3166 4.90237 17.6834 5.29289 17.2929L10.5858 12L5.29289 6.70711C4.90237 6.31658 4.90237 5.68342 5.29289 5.29289Z" fill="currentColor"/>

</symbol>
<symbol id="x-close2" viewBox="0 0 16 16">
<path d="M12 4L4 12M4 4L12 12" stroke="currentColor" stroke-width="2" stroke-linecap="round" stroke-linejoin="round"/>

</symbol></svg>